<?xml version="1.0" encoding="UTF-8"?>
<svg id="Layer_1" data-name="Layer 1" xmlns="http://www.w3.org/2000/svg" version="1.1" viewBox="0 0 233.5 76.8">
  <defs>
    <style>
      .cls-1 {
        fill: #40403f;
      }

      .cls-1, .cls-2, .cls-3, .cls-4, .cls-5, .cls-6, .cls-7, .cls-8, .cls-9, .cls-10, .cls-11, .cls-12, .cls-13 {
        stroke-width: 0px;
      }

      .cls-14 {
        fill: #a1badb;
      }

      .cls-14, .cls-15, .cls-16, .cls-17, .cls-18, .cls-19, .cls-20, .cls-21, .cls-22, .cls-23, .cls-24, .cls-25, .cls-26, .cls-27 {
        stroke-miterlimit: 10;
      }

      .cls-14, .cls-15, .cls-16, .cls-18, .cls-20, .cls-22, .cls-24, .cls-25, .cls-26, .cls-27 {
        stroke: #231f20;
      }

      .cls-14, .cls-15, .cls-16, .cls-18, .cls-20, .cls-22, .cls-24, .cls-27 {
        stroke-width: .1px;
      }

      .cls-2 {
        fill: #808285;
      }

      .cls-15, .cls-26 {
        fill: #e9bacf;
      }

      .cls-3, .cls-7 {
        fill: #939598;
      }

      .cls-16 {
        fill: #f49cbe;
      }

      .cls-17 {
        fill: #0f3c60;
        stroke: #194063;
        stroke-width: 1.1px;
      }

      .cls-4 {
        fill: #bcbec0;
        opacity: .5;
      }

      .cls-18 {
        fill: #f5a4c2;
      }

      .cls-19 {
        fill: none;
        stroke: #282828;
        stroke-width: .8px;
      }

      .cls-5, .cls-13 {
        fill: #6d6e71;
      }

      .cls-6 {
        opacity: .1;
      }

      .cls-6, .cls-11, .cls-12 {
        fill: #5a7591;
      }

      .cls-20, .cls-25 {
        fill: #c9e3f3;
      }

      .cls-21 {
        fill: #fff;
        stroke: #fff;
      }

      .cls-21, .cls-23 {
        stroke-width: 1.1px;
      }

      .cls-7 {
        opacity: .8;
      }

      .cls-8 {
        fill: #58595b;
      }

      .cls-9 {
        fill: #231f20;
      }

      .cls-22 {
        fill: #cedfef;
      }

      .cls-10 {
        fill: #d1d3d4;
      }

      .cls-11 {
        opacity: .2;
      }

      .cls-23 {
        fill: #414042;
        stroke: #414042;
      }

      .cls-12 {
        opacity: .3;
      }

      .cls-28 {
        opacity: .8;
      }

      .cls-29, .cls-13 {
        opacity: .7;
      }

      .cls-24 {
        fill: #bc7a95;
      }

      .cls-25 {
        stroke-width: 0px;
      }

      .cls-26 {
        stroke-width: 0px;
      }

      .cls-27 {
        fill: #7a8fa5;
      }
    </style>
  </defs>
  <rect class="cls-1" x=".2" y="193.2" width="233.2" height="76.8"/>
  <g>
    <g>
      <g>
        <path class="cls-2" d="M196.6,242.8l-1.7-4.3h-8.4l-1.6,4.3h-5.7l9.1-21.8h5.1l9,21.8h-5.8ZM190.7,226.8l-2.8,7.5h5.5l-2.7-7.5Z"/>
        <path class="cls-2" d="M220.3,236.4c0,1.2-.2,2.2-.7,3-.5.8-1.1,1.5-1.9,2s-1.7.8-2.7,1.1c-1,.2-2,.3-3.1.3h-8.7v-21.8h8.7c.8,0,1.7,0,2.6.3.9.2,1.7.5,2.4.9.7.4,1.3,1,1.8,1.7.5.7.7,1.6.7,2.7s-.3,2.2-1,3c-.7.8-1.5,1.4-2.6,1.7h0c.6.2,1.2.4,1.7.6.5.3,1,.6,1.4,1.1.4.4.7.9,1,1.5.2.6.4,1.2.4,1.9ZM214.4,227.3c0-.7-.3-1.3-.8-1.6-.6-.3-1.4-.5-2.5-.5h-2.6v4.5h2.8c1,0,1.7-.2,2.3-.6s.8-1,.8-1.8ZM215.1,235.9c0-.9-.3-1.5-1-1.9-.7-.3-1.6-.5-2.7-.5h-2.9v5h3c.4,0,.8,0,1.3-.1.4,0,.8-.2,1.2-.4.4-.2.7-.4.9-.8.2-.3.3-.8.3-1.3Z"/>
      </g>
      <polygon class="cls-2" points="170 238.2 170 221 164.7 221 164.7 232.7 168.9 242.8 178.4 242.8 178.4 238.2 170 238.2"/>
      <g>
        <path class="cls-21" d="M47.8,242.2v-14.8c.1,0,0,0,0,0l-5.4,14.8h-3.5l-5.3-14.8h0v14.8c.1,0-4.6,0-4.6,0v-20.9h7.2l4.8,13.4h.1l4.6-13.4h7.3v20.9h-5Z"/>
        <path class="cls-21" d="M57.3,242.2v-20.9h14.1v4.3h-9.2v4h8.7v4h-8.7v4.3h9.7v4.3h-14.6Z"/>
        <path class="cls-21" d="M94.7,231.7c0,1.8-.3,3.4-1,4.7-.7,1.3-1.6,2.4-2.7,3.3-1.1.9-2.4,1.5-3.8,1.9-1.4.4-2.8.6-4.3.6h-7.8v-20.9h7.6c1.5,0,2.9.2,4.4.5,1.4.3,2.7.9,3.8,1.7,1.1.8,2,1.9,2.7,3.2.7,1.3,1,3,1,5ZM89.5,231.7c0-1.2-.2-2.2-.6-2.9-.4-.8-.9-1.4-1.5-1.9-.6-.5-1.4-.8-2.2-1-.8-.2-1.7-.3-2.5-.3h-2.5v12.2h2.4c.9,0,1.8-.1,2.6-.3.8-.2,1.6-.5,2.2-1s1.2-1.1,1.5-1.9c.4-.8.6-1.8.6-2.9Z"/>
        <path class="cls-21" d="M98.1,242.2v-20.9h14.1v4.3h-9.2v4h8.7v4h-8.7v4.3h9.7v4.3h-14.6Z"/>
        <path class="cls-21" d="M134.9,242.2v-14.8c.1,0,0,0,0,0l-5.4,14.8h-3.5l-5.3-14.8h0v14.8c.1,0-4.6,0-4.6,0v-20.9h7.2l4.8,13.4h.1l4.6-13.4h7.3v20.9h-5Z"/>
        <path class="cls-21" d="M158.3,242.2l-1.6-4.1h-8.1l-1.5,4.1h-5.5l8.8-20.9h4.9l8.7,20.9h-5.6ZM152.7,226.9l-2.7,7.2h5.3l-2.6-7.2Z"/>
      </g>
    </g>
    <path class="cls-9" d="M30.4,260.4"/>
    <g>
      <ellipse class="cls-10" cx="6.9" cy="227.7" rx="1.6" ry="1.6" transform="translate(-182.3 100.8) rotate(-54.4)"/>
      <path class="cls-2" d="M25.4,233.9l-8.5-4.3c.1-1.7.4-3.4.9-5,.5-1.9,1.3-3.7,2.3-5.5l.7-1.3-12.2,4.3,7.1,7.7-6.8,7.6-.7-.2-.2,1.1,9,2-3.8,7.4,1,.5,4.1-8,7.3-6.5ZM23.5,234.2l-5.5,4.9c-.3-1.3-.6-2.5-.7-3.8-.2-1.5-.3-3-.3-4.5l6.6,3.3ZM18.5,219.9c-.7,1.4-1.3,2.9-1.7,4.5-.4,1.4-.7,2.9-.9,4.4l-5.5-6,8-2.8ZM15.9,231.4c0,1.4.1,2.7.3,4.1.2,1.3.4,2.6.8,3.9l-6.9-1.5,5.8-6.5Z"/>
      <ellipse class="cls-10" cx="17.7" cy="240.1" rx="3.9" ry="3.8" transform="translate(-187.9 114.8) rotate(-54.4)"/>
      <ellipse class="cls-10" cx="16.4" cy="230" rx="3.9" ry="3.8" transform="translate(-180.2 109.5) rotate(-54.4)"/>
      <ellipse class="cls-10" cx="23.7" cy="234.3" rx="2" ry="1.9" transform="translate(-180.6 117.3) rotate(-54.4)"/>
      <path class="cls-10" d="M11.4,223.4c.5-1,.1-2.3-.9-2.8-1-.5-2.2,0-2.8.9s-.1,2.3.9,2.8c1,.5,2.2,0,2.8-.9Z"/>
      <ellipse class="cls-10" cx="19.5" cy="219.1" rx="3.9" ry="3.8" transform="translate(-170.1 107.5) rotate(-54.4)"/>
      <ellipse class="cls-10" cx="9.1" cy="238.1" rx="2.6" ry="2.5" transform="translate(-189.8 107) rotate(-54.4)"/>
      <ellipse class="cls-10" cx="23.1" cy="225.2" rx="1.2" ry="1.2" transform="translate(-173.5 113) rotate(-54.4)"/>
      <ellipse class="cls-10" cx="9.5" cy="231.1" rx=".8" ry=".8" transform="translate(-184 104.4) rotate(-54.4)"/>
      <ellipse class="cls-10" cx="13.4" cy="248.4" rx="2.1" ry="2" transform="translate(-196.4 114.8) rotate(-54.4)"/>
    </g>
    <path class="cls-10" d="M57.2,208.5c-1.1-1.2-2.8-2.9-5.3-4.2.9,2.4,1.8,4.9,2.6,7.3-1.2.4-2.4.8-3.6,1.3.5.3.9.7,1.3,1-.7.9-1.5,1.7-2.2,2.6,3.8.4,7.6.8,11.4,1.2-.6-3.9-1.2-7.9-1.8-11.8-.8.9-1.6,1.7-2.4,2.6Z"/>
    <path class="cls-2" d="M52.9,210.6c-1.4-3.8-2.8-7.7-4.1-11.5-.4,1.1-.8,2.2-1.3,3.4-1.6-.6-4.4-1.3-7.9-1,1.4,1.5,2.8,2.9,4.3,4.4-1.1,1-2.1,2.1-3.2,3.1,1.5.2,2.9.5,4.1.8-.5,1.4-1,2.8-1.6,4.2,3.2-1.1,6.5-2.2,9.7-3.4Z"/>
    <path class="cls-8" d="M42.2,205.8c-2.5-2.5-4.9-5-7.4-7.5,0,1.4,0,2.8,0,4.1-1.6.2-3.9.6-6.3,1.8-5,2.4-7.5,6.5-8.4,8.3,1.5-.9,3.4-2,5.8-2.7,3.7-1.1,6.9-1.1,9-.9,0,1.3,0,2.6,0,3.9,2.4-2.3,4.8-4.6,7.2-6.9Z"/>
    <path class="cls-10" d="M24.3,255.1c1.3,1.2,3.3,2.8,6.1,3.8-1.2-2.5-2.3-5-3.5-7.5,1.3-.6,2.6-1.2,3.8-1.7-.5-.3-1-.6-1.5-.9.7-1,1.5-2,2.2-3-3.7.2-7.5.5-11.2.7.6,3.8,1.2,7.7,1.8,11.5.8-1,1.5-2,2.3-3Z"/>
    <path class="cls-2" d="M28.8,252.5c1.8,3.9,3.7,7.8,5.5,11.7.4-1.2.7-2.5,1.1-3.7,1.8.4,4.8.9,8.6.1-1.7-1.4-3.3-2.8-5-4.1,1.1-1.2,2.1-2.4,3.2-3.6-1.7,0-3.2-.2-4.5-.5.4-1.5.9-3.1,1.3-4.6-3.4,1.5-6.8,3.1-10.2,4.6Z"/>
    <path class="cls-8" d="M40.8,256.5c2.9,2.4,5.7,4.7,8.6,7.1-.1-1.5-.3-2.9-.4-4.4,1.4-.2,5.3-1.1,8.7-4.7,2.9-3.1,4-6.7,4.5-8.3-1.1,1.3-3.3,3.5-6.6,5-3,1.3-5.6,1.4-7.2,1.4-.1-1.4-.3-2.7-.4-4.1-2.4,2.7-4.8,5.4-7.1,8.1Z"/>
  </g>
  <g>
    <g>
      <g class="cls-29">
        <path class="cls-5" d="M196.4,148.5l-1.7-4.3h-8.4l-1.6,4.3h-5.7l9.1-21.8h5.1l9,21.8h-5.8ZM190.5,132.5l-2.8,7.5h5.5l-2.7-7.5Z"/>
        <path class="cls-5" d="M220.2,142.2c0,1.2-.2,2.2-.7,3-.5.8-1.1,1.5-1.9,2s-1.7.8-2.7,1.1c-1,.2-2,.3-3.1.3h-8.7v-21.8h8.7c.8,0,1.7,0,2.6.3.9.2,1.7.5,2.4.9.7.4,1.3,1,1.8,1.7.5.7.7,1.6.7,2.7s-.3,2.2-1,3c-.7.8-1.5,1.4-2.6,1.7h0c.6.2,1.2.4,1.7.6.5.3,1,.6,1.4,1.1.4.4.7.9,1,1.5.2.6.4,1.2.4,1.9ZM214.2,133c0-.7-.3-1.3-.8-1.6-.6-.3-1.4-.5-2.5-.5h-2.6v4.5h2.8c1,0,1.7-.2,2.3-.6s.8-1,.8-1.8ZM214.9,141.7c0-.9-.3-1.5-1-1.9-.7-.3-1.6-.5-2.7-.5h-2.9v5h3c.4,0,.8,0,1.3-.1.4,0,.8-.2,1.2-.4.4-.2.7-.4.9-.8.2-.3.3-.8.3-1.3Z"/>
      </g>
      <polygon class="cls-13" points="169.8 143.9 169.8 126.7 164.6 126.7 164.6 138.4 168.8 148.5 178.3 148.5 178.3 143.9 169.8 143.9"/>
      <g>
        <path class="cls-23" d="M47.6,147.9v-14.8c.1,0,0,0,0,0l-5.4,14.8h-3.5l-5.3-14.8h0v14.8c.1,0-4.6,0-4.6,0v-20.9h7.2l4.8,13.4h.1l4.6-13.4h7.3v20.9h-5Z"/>
        <path class="cls-23" d="M57.1,147.9v-20.9h14.1v4.3h-9.2v4h8.7v4h-8.7v4.3h9.7v4.3h-14.6Z"/>
        <path class="cls-23" d="M94.5,137.4c0,1.8-.3,3.4-1,4.7-.7,1.3-1.6,2.4-2.7,3.3-1.1.9-2.4,1.5-3.8,1.9-1.4.4-2.8.6-4.3.6h-7.8v-20.9h7.6c1.5,0,2.9.2,4.4.5,1.4.3,2.7.9,3.8,1.7,1.1.8,2,1.9,2.7,3.2.7,1.3,1,3,1,5ZM89.3,137.4c0-1.2-.2-2.2-.6-2.9-.4-.8-.9-1.4-1.5-1.9-.6-.5-1.4-.8-2.2-1-.8-.2-1.7-.3-2.5-.3h-2.5v12.2h2.4c.9,0,1.8-.1,2.6-.3.8-.2,1.6-.5,2.2-1s1.2-1.1,1.5-1.9c.4-.8.6-1.8.6-2.9Z"/>
        <path class="cls-23" d="M97.9,147.9v-20.9h14.1v4.3h-9.2v4h8.7v4h-8.7v4.3h9.7v4.3h-14.6Z"/>
        <path class="cls-23" d="M134.8,147.9v-14.8c.1,0,0,0,0,0l-5.4,14.8h-3.5l-5.3-14.8h0v14.8c.1,0-4.6,0-4.6,0v-20.9h7.2l4.8,13.4h.1l4.6-13.4h7.3v20.9h-5Z"/>
        <path class="cls-23" d="M158.2,147.9l-1.6-4.1h-8.1l-1.5,4.1h-5.5l8.8-20.9h4.9l8.7,20.9h-5.6ZM152.6,132.6l-2.7,7.2h5.3l-2.6-7.2Z"/>
      </g>
    </g>
    <path class="cls-9" d="M30.2,166.2"/>
    <g>
      <ellipse class="cls-5" cx="6.9" cy="132.9" rx="1.6" ry="1.6" transform="translate(-105.2 61.2) rotate(-54.4)"/>
      <path class="cls-7" d="M25.4,139.2l-8.5-4.3c.1-1.7.4-3.4.9-5,.5-1.9,1.3-3.7,2.3-5.5l.7-1.3-12.2,4.3,7.1,7.7-6.8,7.6-.7-.2-.2,1.1,9,2-3.8,7.4,1,.5,4.1-8,7.3-6.5ZM23.5,139.4l-5.5,4.9c-.3-1.3-.6-2.5-.7-3.8-.2-1.5-.3-3-.3-4.5l6.6,3.3ZM18.5,125.1c-.7,1.4-1.3,2.9-1.7,4.5-.4,1.4-.7,2.9-.9,4.4l-5.5-6,8-2.8ZM15.9,136.6c0,1.4.1,2.7.3,4.1.2,1.3.4,2.6.8,3.9l-6.9-1.5,5.8-6.5Z"/>
      <ellipse class="cls-5" cx="17.7" cy="145.4" rx="3.9" ry="3.8" transform="translate(-110.8 75.2) rotate(-54.4)"/>
      <ellipse class="cls-5" cx="16.4" cy="135.2" rx="3.9" ry="3.8" transform="translate(-103.1 69.9) rotate(-54.4)"/>
      <ellipse class="cls-5" cx="23.7" cy="139.5" rx="2" ry="1.9" transform="translate(-103.6 77.6) rotate(-54.4)"/>
      <path class="cls-5" d="M11.4,128.6c.5-1,.1-2.3-.9-2.8-1-.5-2.2,0-2.8.9s-.1,2.3.9,2.8c1,.5,2.2,0,2.8-.9Z"/>
      <ellipse class="cls-5" cx="19.5" cy="124.4" rx="3.9" ry="3.8" transform="translate(-93 67.9) rotate(-54.4)"/>
      <ellipse class="cls-5" cx="9.1" cy="143.3" rx="2.6" ry="2.5" transform="translate(-112.7 67.3) rotate(-54.4)"/>
      <ellipse class="cls-5" cx="23.1" cy="130.5" rx="1.2" ry="1.2" transform="translate(-96.5 73.3) rotate(-54.4)"/>
      <ellipse class="cls-5" cx="9.5" cy="136.4" rx=".8" ry=".8" transform="translate(-107 64.8) rotate(-54.4)"/>
      <ellipse class="cls-5" cx="13.4" cy="153.6" rx="2.1" ry="2" transform="translate(-119.3 75.1) rotate(-54.4)"/>
    </g>
    <path class="cls-5" d="M57.1,114.3c-1.1-1.2-2.8-2.9-5.3-4.2.9,2.4,1.8,4.9,2.6,7.3-1.2.4-2.4.8-3.6,1.3.5.3.9.7,1.3,1-.7.9-1.5,1.7-2.2,2.6,3.8.4,7.6.8,11.4,1.2-.6-3.9-1.2-7.9-1.8-11.8-.8.9-1.6,1.7-2.4,2.6Z"/>
    <path class="cls-7" d="M52.8,116.3c-1.4-3.8-2.8-7.7-4.1-11.5-.4,1.1-.8,2.2-1.3,3.4-1.6-.6-4.4-1.3-7.9-1,1.4,1.5,2.8,2.9,4.3,4.4-1.1,1-2.1,2.1-3.2,3.1,1.5.2,2.9.5,4.1.8-.5,1.4-1,2.8-1.6,4.2,3.2-1.1,6.5-2.2,9.7-3.4Z"/>
    <path class="cls-4" d="M42,111.6c-2.5-2.5-4.9-5-7.4-7.5,0,1.4,0,2.8,0,4.1-1.6.2-3.9.6-6.3,1.8-5,2.4-7.5,6.5-8.4,8.3,1.5-.9,3.4-2,5.8-2.7,3.7-1.1,6.9-1.1,9-.9,0,1.3,0,2.6,0,3.9,2.4-2.3,4.8-4.6,7.2-6.9Z"/>
    <path class="cls-5" d="M24.1,160.9c1.3,1.2,3.3,2.8,6.1,3.8-1.2-2.5-2.3-5-3.5-7.5,1.3-.6,2.6-1.2,3.8-1.7-.5-.3-1-.6-1.5-.9.7-1,1.5-2,2.2-3-3.9,0-7.7,0-11.6,0,.7,4,1.4,8.1,2.1,12.1.8-1,1.5-2,2.3-3Z"/>
    <path class="cls-7" d="M28.6,158.2c1.8,3.9,3.7,7.8,5.5,11.7.4-1.2.7-2.5,1.1-3.7,1.8.4,4.8.9,8.6.1-1.7-1.4-3.3-2.8-5-4.1,1.1-1.2,2.1-2.4,3.2-3.6-1.7,0-3.2-.2-4.5-.5.4-1.5.9-3.1,1.3-4.6-3.4,1.5-6.8,3.1-10.2,4.6Z"/>
    <path class="cls-4" d="M40.6,162.2c2.9,2.4,5.7,4.7,8.6,7.1-.1-1.5-.3-2.9-.4-4.4,1.4-.2,5.3-1.1,8.7-4.7,2.9-3.1,4-6.7,4.5-8.3-1.1,1.3-3.3,3.5-6.6,5-3,1.3-5.6,1.4-7.2,1.4-.1-1.4-.3-2.7-.4-4.1-2.4,2.7-4.8,5.4-7.1,8.1Z"/>
  </g>
  <g>
    <g>
      <g>
        <path class="cls-3" d="M197.2,49.2l-1.7-4.3h-8.4l-1.6,4.3h-5.7l9.1-21.8h5.1l9.1,21.8h-5.8ZM191.3,33.3l-2.8,7.5h5.5l-2.7-7.5Z"/>
        <path class="cls-3" d="M220.9,42.9c0,1.2-.2,2.2-.7,3-.5.8-1.1,1.5-1.9,2s-1.7.8-2.7,1.1c-1,.2-2,.3-3.1.3h-8.7v-21.8h8.7c.8,0,1.7,0,2.6.3.9.2,1.7.5,2.4.9.7.4,1.3,1,1.8,1.7.5.7.7,1.6.7,2.7s-.3,2.2-1,3c-.7.8-1.5,1.4-2.6,1.7h0c.6.2,1.2.4,1.7.6.5.3,1,.6,1.4,1.1.4.4.7.9,1,1.5.2.6.4,1.2.4,1.9ZM215,33.8c0-.7-.3-1.3-.8-1.6-.6-.3-1.4-.5-2.5-.5h-2.6v4.5h2.8c1,0,1.7-.2,2.3-.6s.8-1,.8-1.8ZM215.7,42.4c0-.9-.3-1.5-1-1.9-.7-.3-1.6-.5-2.7-.5h-2.9v5h3c.4,0,.8,0,1.3-.1.4,0,.8-.2,1.2-.4.4-.2.7-.4.9-.8.2-.3.3-.8.3-1.3Z"/>
      </g>
      <polygon class="cls-3" points="170.6 44.7 170.6 27.5 165.3 27.5 165.3 39.2 169.5 49.2 179.1 49.2 179.1 44.7 170.6 44.7"/>
      <g>
        <path class="cls-17" d="M48.3,48.7v-14.8c.1,0,0,0,0,0l-5.4,14.8h-3.5l-5.3-14.8h0v14.8c.1,0-4.6,0-4.6,0v-20.9h7.2l4.8,13.4h.1l4.6-13.4h7.3v20.9h-5Z"/>
        <path class="cls-17" d="M57.9,48.7v-20.9h14.1v4.3h-9.2v4h8.7v4h-8.7v4.3h9.7v4.3h-14.6Z"/>
        <path class="cls-17" d="M95.3,38.2c0,1.8-.3,3.4-1,4.7-.7,1.3-1.6,2.4-2.7,3.3s-2.4,1.5-3.8,1.9c-1.4.4-2.8.6-4.3.6h-7.8v-20.9h7.6c1.5,0,2.9.2,4.4.5,1.4.3,2.7.9,3.8,1.7,1.1.8,2,1.9,2.7,3.2.7,1.3,1,3,1,5ZM90,38.2c0-1.2-.2-2.2-.6-2.9-.4-.8-.9-1.4-1.5-1.9-.6-.5-1.4-.8-2.2-1-.8-.2-1.7-.3-2.5-.3h-2.5v12.2h2.4c.9,0,1.8-.1,2.6-.3.8-.2,1.6-.5,2.2-1s1.2-1.1,1.5-1.9c.4-.8.6-1.8.6-2.9Z"/>
        <path class="cls-17" d="M98.6,48.7v-20.9h14.1v4.3h-9.2v4h8.7v4h-8.7v4.3h9.7v4.3h-14.6Z"/>
        <path class="cls-17" d="M135.5,48.7v-14.8c.1,0,0,0,0,0l-5.4,14.8h-3.5l-5.3-14.8h0v14.8c.1,0-4.6,0-4.6,0v-20.9h7.2l4.8,13.4h.1l4.6-13.4h7.3v20.9h-5Z"/>
        <path class="cls-17" d="M158.9,48.7l-1.6-4.1h-8.1l-1.5,4.1h-5.5l8.8-20.9h4.9l8.7,20.9h-5.6ZM153.3,33.4l-2.7,7.2h5.3l-2.6-7.2Z"/>
      </g>
    </g>
    <path class="cls-9" d="M31,66.9"/>
    <path class="cls-24" d="M57.8,15c-1.1-1.2-2.8-2.9-5.3-4.2.9,2.4,1.8,4.9,2.6,7.3-1.2.4-2.4.8-3.6,1.3.5.3.9.7,1.3,1-.7.9-1.5,1.7-2.2,2.6,3.8.4,7.6.8,11.4,1.2-.6-3.9-1.2-7.9-1.8-11.8-.8.9-1.6,1.7-2.4,2.6Z"/>
    <path class="cls-16" d="M53.5,17.1c-1.4-3.8-2.8-7.7-4.1-11.5-.4,1.1-.8,2.2-1.3,3.4-1.6-.6-4.4-1.3-7.9-1,1.4,1.5,2.8,2.9,4.3,4.4-1.1,1-2.1,2.1-3.2,3.1,1.5.2,2.9.5,4.1.8-.5,1.4-1,2.8-1.6,4.2,3.2-1.1,6.5-2.3,9.7-3.4Z"/>
    <path class="cls-15" d="M42.8,12.3c-2.5-2.5-4.9-5-7.4-7.5,0,1.4,0,2.8,0,4.1-1.6.2-3.9.6-6.3,1.8-5,2.4-7.5,6.5-8.4,8.3,1.5-.9,3.4-2,5.8-2.7,3.7-1.1,6.9-1.1,9-.9,0,1.3,0,2.6,0,3.9,2.4-2.3,4.8-4.6,7.2-6.9Z"/>
    <path class="cls-27" d="M24.8,61.6c1.3,1.2,3.3,2.8,6.1,3.8-1.2-2.5-2.3-5-3.5-7.5,1.3-.6,2.6-1.2,3.8-1.7-.5-.3-1-.6-1.5-.9.7-1,1.5-2,2.2-3-3.9,0-7.9,0-11.8,0l2.3,12.1c.8-1,1.5-2,2.3-3Z"/>
    <path class="cls-14" d="M29.3,58.9c1.8,3.9,3.7,7.8,5.5,11.7.4-1.2.7-2.5,1.1-3.7,1.8.4,4.8.9,8.6.1-1.7-1.4-3.3-2.8-5-4.1,1.1-1.2,2.1-2.4,3.2-3.6-1.7,0-3.2-.2-4.5-.5.4-1.5.9-3.1,1.3-4.6-3.4,1.5-6.8,3.1-10.2,4.6Z"/>
    <path class="cls-20" d="M41.3,62.9c2.9,2.4,5.7,4.7,8.6,7.1-.1-1.5-.3-2.9-.4-4.4,1.4-.2,5.3-1.1,8.7-4.8,2.9-3.1,4-6.7,4.5-8.3-1.1,1.3-3.3,3.5-6.6,5-3,1.3-5.6,1.4-7.2,1.4-.1-1.4-.3-2.7-.4-4.1-2.4,2.7-4.8,5.4-7.1,8.1Z"/>
    <g>
      <g>
        <ellipse class="cls-16" cx="23.9" cy="32" rx="1.3" ry="1.3" transform="translate(-16 33.1) rotate(-54.8)"/>
        <g class="cls-28">
          <line class="cls-19" x1="9.9" y1="43.7" x2="17.1" y2="35.5"/>
          <line class="cls-19" x1="8.7" y1="43.6" x2="18.4" y2="45.7"/>
          <line class="cls-19" x1="14.3" y1="53.8" x2="18.4" y2="45.7"/>
          <path class="cls-19" d="M17.1,35.5c0,1.6,0,3.4.3,5.4.3,1.8.6,3.4,1,4.7"/>
          <path class="cls-19" d="M18.4,45.7l6.8-6.1-8.1-4.1-6.9-7.5,10.1-3.7c-.8,1.4-1.6,3.3-2.3,5.6-.6,2.1-.8,4-.9,5.5"/>
        </g>
        <ellipse class="cls-14" cx="18.4" cy="45.7" rx="3.9" ry="3.8" transform="translate(-29.5 34.4) rotate(-54.8)"/>
        <ellipse class="cls-14" cx="17.1" cy="35.5" rx="3.9" ry="3.8" transform="translate(-21.8 29) rotate(-54.8)"/>
        <ellipse class="cls-25" cx="24.9" cy="39.4" rx="1.8" ry="1.7" transform="translate(-21.7 37) rotate(-54.8)"/>
        <path class="cls-20" d="M12,28.9c.5-1,.1-2.3-.9-2.8-1-.5-2.3,0-2.8,1-.5,1-.1,2.3.9,2.8,1,.5,2.3,0,2.8-1Z"/>
        <ellipse class="cls-14" cx="20.2" cy="24.6" rx="3.9" ry="3.8" transform="translate(-11.6 26.9) rotate(-54.8)"/>
        <ellipse class="cls-20" cx="9.9" cy="43.7" rx="2.1" ry="2" transform="translate(-31.6 26.6) rotate(-54.8)"/>
        <ellipse class="cls-26" cx="24.9" cy="47.5" rx=".9" ry=".9" transform="translate(-28.3 40.4) rotate(-54.8)"/>
        <ellipse class="cls-16" cx="12.6" cy="50.3" rx=".7" ry=".7" transform="translate(-35.7 31.6) rotate(-54.8)"/>
        <ellipse class="cls-15" cx="8.2" cy="34" rx="1.2" ry="1.2" transform="translate(-24.3 21.1) rotate(-54.8)"/>
        <ellipse class="cls-18" cx="10.6" cy="36.9" rx=".8" ry=".8" transform="translate(-25.7 24.2) rotate(-54.8)"/>
        <ellipse class="cls-22" cx="14.2" cy="54" rx="2.1" ry="2" transform="translate(-38.1 34.5) rotate(-54.8)"/>
      </g>
      <path class="cls-12" d="M15,32.3c-.2.2-1.4.9-1.7,2.5,0,.2-.4,1.8.7,3.2.2.3.9,1,1.9,1.3,1.8.5,3.3-.7,3.5-.8-1.6.7-3.6.2-4.6-1.2-1.1-1.5-1-3.5.2-4.9Z"/>
      <path class="cls-12" d="M15.9,42.8c-.2.2-1.2,1.1-1.4,2.7,0,.2-.1,2,1.3,3.2,1.1.9,2.3.9,2.5.9,1.5,0,2.4-.9,2.6-1.1-1.6.8-3.5.5-4.7-.7-1.3-1.3-1.4-3.4-.4-4.9Z"/>
      <path class="cls-12" d="M18.9,21c-.3,0-1.5.6-2.2,2,0,.2-.8,1.7,0,3.3.2.4.6,1.2,1.6,1.7,1.7.9,3.4,0,3.6,0-1.8.3-3.5-.6-4.2-2.2-.7-1.7-.2-3.7,1.3-4.8Z"/>
      <path class="cls-6" d="M9.6,26.1c-1.1.3-1.7,1.5-1.4,2.6.3,1.1,1.6,1.7,2.7,1.3-1,0-1.9-.6-2.2-1.6-.2-.9.1-1.8.9-2.3Z"/>
      <path class="cls-6" d="M8.8,41.9c-1,.6-1.3,1.9-.7,2.8.6,1,1.9,1.3,2.9.6-1,.3-2-.1-2.5-1-.4-.8-.3-1.8.3-2.5Z"/>
      <path class="cls-6" d="M23.7,38.2c-.7.6-.8,1.7-.3,2.4.6.7,1.8.8,2.6,0-.7.4-1.6.3-2.1-.3-.6-.6-.6-1.5-.2-2.1Z"/>
      <path class="cls-11" d="M24.2,46.8c0,0-.2.2-.3.5,0,0,0,.5.3.8.3.3.7.3,1,.2.3-.1.4-.3.4-.4-.4.3-.9.2-1.2,0-.3-.3-.4-.7-.2-1Z"/>
      <path class="cls-11" d="M23.2,30.9c-.1,0-.4.3-.5.7,0,0-.2.7.2,1.3.3.4.9.6,1.4.4.4-.1.6-.4.7-.5-.6.3-1.3.2-1.7-.3-.4-.4-.4-1-.1-1.5Z"/>
      <path class="cls-11" d="M7.7,32.9c-.1,0-.4.2-.6.6,0,0-.3.6,0,1.1.3.4.8.6,1.2.5.4,0,.6-.3.7-.4-.6.2-1.2,0-1.5-.5-.3-.4-.2-1,.1-1.4Z"/>
      <path class="cls-11" d="M10.1,36.2c0,0-.2.1-.3.3,0,0-.3.4,0,.8.2.3.5.4.8.4.3,0,.4-.2.5-.2-.4.2-.9,0-1.1-.3-.2-.3-.1-.7,0-.9Z"/>
      <path class="cls-11" d="M12.3,49.7c0,0-.2.1-.3.4,0,0-.1.3,0,.5,0,0,.2.3.5.4.3,0,.6-.2.6-.2-.3.1-.7,0-.8-.3-.1-.2,0-.5,0-.8Z"/>
      <path class="cls-6" d="M13,52.5c-.9.8-1,2-.3,2.8.7.9,2.2,1,3.1,0-.8.5-1.9.4-2.5-.3-.7-.7-.8-1.7-.2-2.5Z"/>
    </g>
  </g>
</svg>